<?xml version="1.0" encoding="UTF-8"?>
<svg id="Capa_1" data-name="Capa 1" xmlns="http://www.w3.org/2000/svg" xmlns:xlink="http://www.w3.org/1999/xlink" viewBox="0 0 841.89 595.28">
  <defs>
    <clipPath id="clippath">
      <rect x="0" width="841.89" height="595.28" style="fill: none; stroke-width: 0px;"/>
    </clipPath>
  </defs>
  <g style="clip-path: url(#clippath);">
    <rect x=".17" y="187.31" width="107.26" height="26.82" style="fill: #2dabe3; stroke-width: 0px;"/>
    <rect x="107.43" y="80.15" width="107.26" height="26.82" style="fill: #f9b03d; stroke-width: 0px;"/>
    <rect x="80.39" y="187.2" width="27.04" height="27.04" style="fill: #30358c; stroke-width: 0px;"/>
    <rect x="187.9" y="80.16" width="26.8" height="26.8" style="fill: #223260; stroke-width: 0px;"/>
    <polygon points=".17 0 0 153.71 0 187.31 107.43 187.31 107.43 80.15 214.69 80.15 214.69 0 .17 0" style="fill: #e83f44; stroke-width: 0px;"/>
    <g>
      <path d="m306.31,242.08c1.55,2.01,2.33,4.43,2.33,7.27,0,4.21-1.74,7.46-5.21,9.77-3.47,2.31-8.5,3.46-15.08,3.46h-27.02v-48h25.64c6.4,0,11.23,1.14,14.5,3.43,3.27,2.29,4.9,5.33,4.9,9.12,0,2.24-.56,4.25-1.68,6.03-1.12,1.78-2.78,3.22-4.97,4.32,2.83,1.05,5.03,2.58,6.58,4.59Zm-29.07-16.18v7.13h7.54c3.52,0,5.28-1.19,5.28-3.57s-1.76-3.57-5.28-3.57h-7.54Zm15.08,21.6c0-2.51-1.78-3.77-5.35-3.77h-9.74v7.54h9.74c3.57,0,5.35-1.26,5.35-3.77Z" style="fill: #e83f44; stroke-width: 0px;"/>
      <path d="m314.84,219.83c-1.71-1.48-2.57-3.37-2.57-5.66s.86-4.17,2.57-5.66c1.71-1.48,3.97-2.23,6.75-2.23s5.1.71,6.79,2.13c1.69,1.42,2.54,3.25,2.54,5.49,0,2.38-.85,4.33-2.54,5.86-1.69,1.53-3.95,2.3-6.79,2.3s-5.04-.74-6.75-2.23Zm-.99,5.25h15.5v37.51h-15.5v-37.51Z" style="fill: #e83f44; stroke-width: 0px;"/>
      <path d="m335.86,236.94h20.57v11.66h-20.57v-11.66Z" style="fill: #e83f44; stroke-width: 0px;"/>
      <path d="m395.17,237.28h14.06v20.3c-2.83,1.97-6.13,3.47-9.87,4.53-3.75,1.05-7.43,1.58-11.04,1.58-5.12,0-9.71-1.06-13.78-3.19-4.07-2.13-7.26-5.1-9.56-8.91-2.31-3.82-3.46-8.15-3.46-12.99s1.15-9.18,3.46-12.99c2.31-3.82,5.53-6.79,9.67-8.91,4.14-2.13,8.81-3.19,14.02-3.19,4.71,0,8.92.79,12.65,2.37,3.73,1.58,6.82,3.87,9.29,6.89l-10.35,9.12c-3.02-3.52-6.61-5.28-10.76-5.28-3.57,0-6.4,1.07-8.5,3.22-2.1,2.15-3.15,5.07-3.15,8.78s1.04,6.51,3.12,8.71c2.08,2.19,4.86,3.29,8.33,3.29,2.06,0,4.02-.39,5.9-1.17v-12.14Z" style="fill: #e83f44; stroke-width: 0px;"/>
      <path d="m448.86,254.22h-18.24l-3.22,8.37h-16.46l20.98-48h15.91l20.98,48h-16.73l-3.22-8.37Zm-4.46-11.66l-4.66-12.07-4.66,12.07h9.33Z" style="fill: #e83f44; stroke-width: 0px;"/>
      <path d="m471.41,214.59h23.66c5.35,0,10.07.97,14.16,2.91,4.09,1.94,7.27,4.72,9.53,8.33,2.26,3.61,3.39,7.86,3.39,12.75s-1.13,9.14-3.39,12.75c-2.26,3.61-5.44,6.39-9.53,8.33-4.09,1.94-8.81,2.91-14.16,2.91h-23.66v-48Zm22.97,35.38c3.47,0,6.25-.99,8.33-2.98,2.08-1.99,3.12-4.79,3.12-8.4s-1.04-6.41-3.12-8.4c-2.08-1.99-4.86-2.98-8.33-2.98h-6.79v22.76h6.79Z" style="fill: #e83f44; stroke-width: 0px;"/>
      <path d="m570.9,262.58l-.14-21.87-10.42,17.55h-7.13l-10.42-16.8v21.12h-14.74v-48h13.3l15.63,25.58,15.22-25.58h13.3l.14,48h-14.74Z" style="fill: #e83f44; stroke-width: 0px;"/>
      <path d="m614.03,250.51h-4.39v12.07h-16.18v-48h23.11c4.43,0,8.3.73,11.59,2.19,3.29,1.46,5.83,3.57,7.61,6.31,1.78,2.74,2.67,5.94,2.67,9.6,0,3.43-.78,6.42-2.33,8.98-1.55,2.56-3.79,4.59-6.72,6.1l10.08,14.81h-17.28l-8.16-12.07Zm6.45-21.98c-1.1-.98-2.74-1.47-4.94-1.47h-5.9v11.25h5.9c2.19,0,3.84-.49,4.94-1.47,1.1-.98,1.65-2.37,1.65-4.15s-.55-3.17-1.65-4.15Z" style="fill: #e83f44; stroke-width: 0px;"/>
    </g>
    <g>
      <path d="m275.35,307.69h-3.13v8.6h-11.53v-34.21h16.47c3.16,0,5.91.52,8.26,1.56,2.35,1.04,4.15,2.54,5.42,4.5s1.91,4.24,1.91,6.84c0,2.44-.55,4.58-1.66,6.4-1.11,1.83-2.7,3.27-4.79,4.35l7.18,10.56h-12.31l-5.82-8.6Zm4.59-15.66c-.78-.7-1.96-1.05-3.52-1.05h-4.2v8.01h4.2c1.56,0,2.74-.35,3.52-1.05.78-.7,1.17-1.69,1.17-2.96s-.39-2.26-1.17-2.96Z" style="fill: #25335f; stroke-width: 0px;"/>
      <path d="m297.1,282.09h11.53v34.21h-11.53v-34.21Z" style="fill: #25335f; stroke-width: 0px;"/>
      <path d="m322.22,314.78c-2.93-1.53-5.23-3.66-6.89-6.38-1.66-2.72-2.49-5.79-2.49-9.21s.83-6.49,2.49-9.21c1.66-2.72,3.96-4.85,6.89-6.38s6.24-2.3,9.92-2.3,6.99.77,9.92,2.3,5.23,3.66,6.89,6.38c1.66,2.72,2.49,5.79,2.49,9.21s-.83,6.49-2.49,9.21c-1.66,2.72-3.96,4.85-6.89,6.38s-6.24,2.3-9.92,2.3-6.99-.77-9.92-2.3Zm13.81-8.09c1.16-.7,2.08-1.69,2.76-2.98.68-1.29,1.03-2.79,1.03-4.52s-.34-3.23-1.03-4.52c-.68-1.29-1.6-2.28-2.76-2.98-1.16-.7-2.45-1.05-3.88-1.05s-2.73.35-3.89,1.05c-1.16.7-2.08,1.69-2.76,2.98-.68,1.29-1.03,2.79-1.03,4.52s.34,3.23,1.03,4.52c.68,1.29,1.6,2.28,2.76,2.98,1.16.7,2.45,1.05,3.89,1.05s2.73-.35,3.88-1.05Z" style="fill: #25335f; stroke-width: 0px;"/>
      <path d="m387.7,301.68c1.11,1.43,1.66,3.16,1.66,5.18,0,3-1.24,5.32-3.71,6.96-2.48,1.65-6.06,2.47-10.75,2.47h-19.25v-34.21h18.28c4.56,0,8.01.81,10.34,2.44,2.33,1.63,3.49,3.8,3.49,6.5,0,1.6-.4,3.03-1.2,4.3-.8,1.27-1.98,2.3-3.54,3.08,2.02.75,3.58,1.84,4.69,3.27Zm-20.72-11.53v5.08h5.38c2.51,0,3.76-.85,3.76-2.54s-1.25-2.54-3.76-2.54h-5.38Zm10.75,15.39c0-1.79-1.27-2.69-3.81-2.69h-6.94v5.38h6.94c2.54,0,3.81-.9,3.81-2.69Z" style="fill: #25335f; stroke-width: 0px;"/>
      <path d="m416.73,310.33h-13l-2.3,5.96h-11.73l14.95-34.21h11.34l14.95,34.21h-11.92l-2.3-5.96Zm-3.18-8.31l-3.32-8.6-3.32,8.6h6.65Z" style="fill: #25335f; stroke-width: 0px;"/>
      <path d="m463.35,316.29l-.1-15.59-7.43,12.51h-5.08l-7.43-11.97v15.05h-10.51v-34.21h9.48l11.14,18.23,10.85-18.23h9.48l.1,34.21h-10.51Z" style="fill: #25335f; stroke-width: 0px;"/>
      <path d="m511.48,301.68c1.11,1.43,1.66,3.16,1.66,5.18,0,3-1.24,5.32-3.71,6.96-2.48,1.65-6.06,2.47-10.75,2.47h-19.25v-34.21h18.28c4.56,0,8.01.81,10.33,2.44,2.33,1.63,3.49,3.8,3.49,6.5,0,1.6-.4,3.03-1.2,4.3-.8,1.27-1.98,2.3-3.54,3.08,2.02.75,3.58,1.84,4.69,3.27Zm-20.72-11.53v5.08h5.38c2.51,0,3.76-.85,3.76-2.54s-1.25-2.54-3.76-2.54h-5.38Zm10.75,15.39c0-1.79-1.27-2.69-3.81-2.69h-6.94v5.38h6.94c2.54,0,3.81-.9,3.81-2.69Z" style="fill: #25335f; stroke-width: 0px;"/>
      <path d="m540.51,310.33h-13l-2.3,5.96h-11.73l14.95-34.21h11.34l14.95,34.21h-11.92l-2.3-5.96Zm-3.18-8.31l-3.32-8.6-3.32,8.6h6.65Z" style="fill: #25335f; stroke-width: 0px;"/>
    </g>
    <g>
      <path d="m264.6,358.75c-2.03-.71-3.59-1.64-4.7-2.81l1.23-2.42c1.08,1.08,2.51,1.95,4.29,2.61s3.63,1,5.53,1c2.66,0,4.66-.49,5.99-1.47,1.33-.98,2-2.25,2-3.8,0-1.19-.36-2.14-1.08-2.85-.72-.71-1.61-1.25-2.66-1.64-1.05-.38-2.51-.8-4.38-1.25-2.24-.57-4.02-1.11-5.36-1.64-1.33-.52-2.47-1.33-3.42-2.4-.95-1.08-1.42-2.54-1.42-4.38,0-1.5.4-2.87,1.19-4.1.79-1.23,2.01-2.22,3.66-2.95,1.64-.74,3.68-1.11,6.12-1.11,1.7,0,3.37.23,5,.7,1.63.47,3.04,1.11,4.23,1.93l-1.06,2.51c-1.25-.82-2.58-1.44-4-1.85-1.42-.41-2.81-.62-4.17-.62-2.61,0-4.57.5-5.89,1.51s-1.98,2.3-1.98,3.89c0,1.19.36,2.15,1.08,2.87s1.63,1.28,2.72,1.66c1.09.38,2.56.8,4.4,1.25,2.18.54,3.95,1.07,5.29,1.59,1.35.53,2.49,1.32,3.42,2.38.94,1.06,1.4,2.5,1.4,4.32,0,1.5-.4,2.87-1.21,4.1-.81,1.23-2.05,2.21-3.72,2.93-1.67.72-3.73,1.08-6.16,1.08-2.21,0-4.33-.35-6.36-1.06Z" style="fill: #25335f; stroke-width: 0px;"/>
      <path d="m288.22,331.67c-.42-.43-.64-.94-.64-1.53s.21-1.06.64-1.49c.43-.43.95-.64,1.57-.64s1.15.21,1.57.62c.43.41.64.9.64,1.47,0,.62-.21,1.15-.64,1.57-.42.42-.95.64-1.57.64s-1.15-.21-1.57-.64Zm.04,5.53h3.02v22.36h-3.02v-22.36Z" style="fill: #25335f; stroke-width: 0px;"/>
      <path d="m300.48,358.98c-1.66-.52-2.95-1.18-3.89-1.98l1.36-2.38c.94.74,2.11,1.34,3.53,1.81,1.42.47,2.89.7,4.42.7,2.04,0,3.55-.32,4.53-.96.98-.64,1.47-1.54,1.47-2.7,0-.82-.27-1.47-.81-1.93-.54-.47-1.22-.82-2.04-1.06-.82-.24-1.91-.47-3.27-.7-1.81-.34-3.27-.69-4.38-1.04-1.11-.35-2.05-.96-2.83-1.81-.78-.85-1.17-2.03-1.17-3.53,0-1.87.78-3.4,2.34-4.59,1.56-1.19,3.73-1.79,6.5-1.79,1.45,0,2.89.19,4.34.57,1.45.38,2.64.89,3.57,1.51l-1.32,2.42c-1.84-1.28-4.04-1.91-6.59-1.91-1.93,0-3.38.34-4.36,1.02-.98.68-1.47,1.57-1.47,2.68,0,.85.28,1.53.83,2.04.55.51,1.24.89,2.06,1.13.82.24,1.96.49,3.4.74,1.79.34,3.22.68,4.29,1.02,1.08.34,2,.92,2.76,1.74.77.82,1.15,1.96,1.15,3.4,0,1.96-.81,3.51-2.44,4.66-1.63,1.15-3.89,1.72-6.78,1.72-1.81,0-3.55-.26-5.21-.79Z" style="fill: #25335f; stroke-width: 0px;"/>
      <path d="m332.26,358.2c-.57.51-1.27.9-2.1,1.17-.84.27-1.71.4-2.61.4-2.1,0-3.71-.57-4.85-1.7-1.13-1.13-1.7-2.74-1.7-4.8v-13.52h-4v-2.55h4v-4.89h3.02v4.89h6.8v2.55h-6.8v13.35c0,1.33.33,2.35,1,3.04.67.69,1.62,1.04,2.87,1.04.62,0,1.23-.1,1.81-.3.58-.2,1.08-.48,1.51-.85l1.06,2.17Z" style="fill: #25335f; stroke-width: 0px;"/>
      <path d="m357.22,349.31h-18.71c.17,2.32,1.06,4.2,2.68,5.63,1.62,1.43,3.66,2.15,6.12,2.15,1.39,0,2.66-.25,3.83-.74s2.17-1.23,3.02-2.19l1.7,1.96c-.99,1.19-2.23,2.1-3.72,2.72-1.49.62-3.12.94-4.91.94-2.3,0-4.33-.49-6.1-1.47-1.77-.98-3.15-2.33-4.15-4.06-.99-1.73-1.49-3.68-1.49-5.87s.47-4.14,1.42-5.87c.95-1.73,2.25-3.07,3.91-4.04,1.66-.96,3.52-1.45,5.59-1.45s3.93.48,5.57,1.45c1.64.96,2.93,2.3,3.87,4.02.94,1.71,1.4,3.68,1.4,5.89l-.04.94Zm-16.22-7.63c-1.46,1.38-2.29,3.17-2.49,5.38h15.86c-.2-2.21-1.03-4-2.49-5.38-1.46-1.38-3.28-2.06-5.46-2.06s-3.96.69-5.42,2.06Z" style="fill: #25335f; stroke-width: 0px;"/>
      <path d="m397.92,339.45c1.6,1.62,2.4,4,2.4,7.14v12.97h-3.02v-12.67c0-2.32-.56-4.09-1.68-5.31-1.12-1.22-2.7-1.83-4.74-1.83-2.32,0-4.15.72-5.48,2.15-1.33,1.43-2,3.41-2,5.93v11.73h-3.02v-12.67c0-2.32-.56-4.09-1.68-5.31-1.12-1.22-2.71-1.83-4.78-1.83-2.3,0-4.12.72-5.46,2.15-1.35,1.43-2.02,3.41-2.02,5.93v11.73h-3.02v-22.36h2.89v4.08c.79-1.36,1.9-2.41,3.32-3.15,1.42-.74,3.05-1.11,4.89-1.11s3.49.4,4.87,1.19c1.37.79,2.4,1.97,3.08,3.53.82-1.47,2-2.63,3.55-3.46,1.54-.84,3.31-1.25,5.29-1.25,2.81,0,5.01.81,6.61,2.42Z" style="fill: #25335f; stroke-width: 0px;"/>
      <path d="m423.07,339.21c1.56,1.46,2.34,3.62,2.34,6.48v13.86h-2.89v-3.49c-.68,1.16-1.68,2.07-3,2.72s-2.88.98-4.7.98c-2.49,0-4.48-.6-5.95-1.79-1.47-1.19-2.21-2.76-2.21-4.72s.69-3.43,2.06-4.59c1.37-1.16,3.56-1.74,6.57-1.74h7.1v-1.36c0-1.93-.54-3.39-1.61-4.4-1.08-1.01-2.65-1.51-4.72-1.51-1.42,0-2.78.23-4.08.7-1.3.47-2.42,1.11-3.36,1.93l-1.36-2.25c1.13-.96,2.49-1.71,4.08-2.23,1.59-.52,3.26-.79,5.02-.79,2.92,0,5.16.73,6.72,2.19Zm-3.4,17c1.22-.78,2.13-1.91,2.72-3.38v-3.66h-7.01c-3.83,0-5.74,1.33-5.74,4,0,1.3.5,2.33,1.49,3.08.99.75,2.38,1.13,4.17,1.13s3.16-.39,4.38-1.17Z" style="fill: #25335f; stroke-width: 0px;"/>
      <path d="m465.15,328.01v31.54h-2.89v-4.42c-.91,1.5-2.1,2.65-3.59,3.44-1.49.79-3.17,1.19-5.04,1.19-2.1,0-4-.48-5.7-1.45-1.7-.96-3.03-2.31-4-4.04-.96-1.73-1.45-3.7-1.45-5.91s.48-4.18,1.45-5.91c.96-1.73,2.3-3.07,4-4.02,1.7-.95,3.6-1.42,5.7-1.42,1.81,0,3.45.38,4.91,1.13,1.46.75,2.66,1.85,3.59,3.29v-13.43h3.02Zm-7.04,27.99c1.26-.72,2.25-1.75,2.98-3.08.72-1.33,1.08-2.85,1.08-4.55s-.36-3.22-1.08-4.55-1.71-2.36-2.98-3.08c-1.26-.72-2.67-1.08-4.23-1.08s-3.01.36-4.27,1.08c-1.26.72-2.25,1.75-2.98,3.08s-1.08,2.85-1.08,4.55.36,3.22,1.08,4.55c.72,1.33,1.71,2.36,2.98,3.08,1.26.72,2.68,1.08,4.27,1.08s2.97-.36,4.23-1.08Z" style="fill: #25335f; stroke-width: 0px;"/>
      <path d="m493.04,349.31h-18.71c.17,2.32,1.06,4.2,2.68,5.63,1.62,1.43,3.66,2.15,6.12,2.15,1.39,0,2.66-.25,3.83-.74s2.17-1.23,3.02-2.19l1.7,1.96c-.99,1.19-2.23,2.1-3.72,2.72-1.49.62-3.12.94-4.91.94-2.29,0-4.33-.49-6.1-1.47s-3.15-2.33-4.14-4.06c-.99-1.73-1.49-3.68-1.49-5.87s.47-4.14,1.42-5.87c.95-1.73,2.25-3.07,3.91-4.04,1.66-.96,3.52-1.45,5.59-1.45s3.93.48,5.57,1.45c1.64.96,2.93,2.3,3.87,4.02.93,1.71,1.4,3.68,1.4,5.89l-.04.94Zm-16.22-7.63c-1.46,1.38-2.29,3.17-2.49,5.38h15.86c-.2-2.21-1.03-4-2.49-5.38s-3.28-2.06-5.46-2.06-3.96.69-5.42,2.06Z" style="fill: #25335f; stroke-width: 0px;"/>
      <path d="m511.17,358.98c-1.66-.52-2.96-1.18-3.89-1.98l1.36-2.38c.93.74,2.11,1.34,3.53,1.81,1.42.47,2.89.7,4.42.7,2.04,0,3.55-.32,4.53-.96.98-.64,1.47-1.54,1.47-2.7,0-.82-.27-1.47-.81-1.93s-1.22-.82-2.04-1.06c-.82-.24-1.91-.47-3.27-.7-1.81-.34-3.27-.69-4.38-1.04-1.11-.35-2.05-.96-2.83-1.81-.78-.85-1.17-2.03-1.17-3.53,0-1.87.78-3.4,2.34-4.59s3.73-1.79,6.5-1.79c1.45,0,2.89.19,4.34.57,1.45.38,2.64.89,3.57,1.51l-1.32,2.42c-1.84-1.28-4.04-1.91-6.59-1.91-1.93,0-3.38.34-4.36,1.02-.98.68-1.47,1.57-1.47,2.68,0,.85.28,1.53.83,2.04.55.51,1.24.89,2.06,1.13.82.24,1.96.49,3.4.74,1.79.34,3.22.68,4.29,1.02,1.08.34,2,.92,2.76,1.74.77.82,1.15,1.96,1.15,3.4,0,1.96-.81,3.51-2.44,4.66-1.63,1.15-3.89,1.72-6.78,1.72-1.81,0-3.55-.26-5.21-.79Z" style="fill: #25335f; stroke-width: 0px;"/>
      <path d="m550.65,349.31h-18.71c.17,2.32,1.06,4.2,2.68,5.63,1.62,1.43,3.66,2.15,6.12,2.15,1.39,0,2.66-.25,3.83-.74s2.17-1.23,3.02-2.19l1.7,1.96c-.99,1.19-2.23,2.1-3.72,2.72-1.49.62-3.12.94-4.91.94-2.3,0-4.33-.49-6.1-1.47-1.77-.98-3.15-2.33-4.15-4.06s-1.49-3.68-1.49-5.87.47-4.14,1.42-5.87c.95-1.73,2.25-3.07,3.91-4.04,1.66-.96,3.52-1.45,5.59-1.45s3.92.48,5.57,1.45c1.64.96,2.93,2.3,3.87,4.02s1.4,3.68,1.4,5.89l-.04.94Zm-16.22-7.63c-1.46,1.38-2.29,3.17-2.49,5.38h15.86c-.2-2.21-1.03-4-2.49-5.38-1.46-1.38-3.28-2.06-5.46-2.06s-3.96.69-5.42,2.06Z" style="fill: #25335f; stroke-width: 0px;"/>
      <path d="m577.56,337.19v19.64c0,3.8-.93,6.61-2.78,8.44-1.86,1.83-4.66,2.74-8.4,2.74-2.07,0-4.03-.3-5.89-.91-1.86-.61-3.37-1.45-4.53-2.53l1.53-2.3c1.08.96,2.39,1.71,3.93,2.25,1.54.54,3.17.81,4.87.81,2.83,0,4.92-.66,6.25-1.98,1.33-1.32,2-3.37,2-6.14v-2.85c-.93,1.42-2.16,2.49-3.68,3.23-1.52.74-3.2,1.11-5.04,1.11-2.1,0-4-.46-5.72-1.38-1.71-.92-3.06-2.21-4.04-3.87s-1.47-3.54-1.47-5.63.49-3.97,1.47-5.61,2.32-2.92,4.02-3.83,3.61-1.36,5.74-1.36c1.9,0,3.61.38,5.14,1.15,1.53.77,2.76,1.87,3.7,3.32v-4.29h2.89Zm-7.06,17.79c1.3-.69,2.32-1.66,3.04-2.91.72-1.25,1.08-2.66,1.08-4.25s-.36-3-1.08-4.23c-.72-1.23-1.73-2.2-3.02-2.89-1.29-.69-2.76-1.04-4.4-1.04s-3.07.34-4.36,1.02c-1.29.68-2.3,1.64-3.02,2.89s-1.08,2.66-1.08,4.25.36,3,1.08,4.25c.72,1.25,1.73,2.22,3.02,2.91,1.29.7,2.74,1.04,4.36,1.04s3.07-.35,4.38-1.04Z" style="fill: #25335f; stroke-width: 0px;"/>
      <path d="m606.17,337.19v22.36h-2.89v-4.08c-.79,1.36-1.88,2.42-3.27,3.17-1.39.75-2.98,1.13-4.76,1.13-2.92,0-5.22-.81-6.91-2.44-1.69-1.63-2.53-4.02-2.53-7.16v-12.97h3.02v12.67c0,2.35.58,4.14,1.74,5.36,1.16,1.22,2.82,1.83,4.97,1.83,2.35,0,4.21-.72,5.57-2.15,1.36-1.43,2.04-3.42,2.04-5.97v-11.73h3.02Z" style="fill: #25335f; stroke-width: 0px;"/>
      <path d="m614.58,331.67c-.42-.43-.64-.94-.64-1.53s.21-1.06.64-1.49.95-.64,1.57-.64,1.15.21,1.57.62c.42.41.64.9.64,1.47,0,.62-.21,1.15-.64,1.57-.42.42-.95.64-1.57.64s-1.15-.21-1.57-.64Zm.04,5.53h3.02v22.36h-3.02v-22.36Z" style="fill: #25335f; stroke-width: 0px;"/>
      <path d="m660.56,339.45c1.6,1.62,2.4,4,2.4,7.14v12.97h-3.02v-12.67c0-2.32-.56-4.09-1.68-5.31-1.12-1.22-2.7-1.83-4.74-1.83-2.32,0-4.15.72-5.48,2.15-1.33,1.43-2,3.41-2,5.93v11.73h-3.02v-12.67c0-2.32-.56-4.09-1.68-5.31-1.12-1.22-2.71-1.83-4.78-1.83-2.3,0-4.12.72-5.46,2.15-1.35,1.43-2.02,3.41-2.02,5.93v11.73h-3.02v-22.36h2.89v4.08c.79-1.36,1.9-2.41,3.32-3.15s3.05-1.11,4.89-1.11,3.49.4,4.87,1.19c1.38.79,2.4,1.97,3.08,3.53.82-1.47,2-2.63,3.55-3.46s3.31-1.25,5.29-1.25c2.81,0,5.01.81,6.61,2.42Z" style="fill: #25335f; stroke-width: 0px;"/>
      <path d="m671.13,331.67c-.42-.43-.64-.94-.64-1.53s.21-1.06.64-1.49c.42-.43.95-.64,1.57-.64s1.15.21,1.57.62c.43.41.64.9.64,1.47,0,.62-.21,1.15-.64,1.57s-.95.64-1.57.64-1.15-.21-1.57-.64Zm.04,5.53h3.02v22.36h-3.02v-22.36Z" style="fill: #25335f; stroke-width: 0px;"/>
      <path d="m702.07,349.31h-18.71c.17,2.32,1.06,4.2,2.68,5.63,1.62,1.43,3.66,2.15,6.12,2.15,1.39,0,2.66-.25,3.83-.74,1.16-.5,2.17-1.23,3.02-2.19l1.7,1.96c-.99,1.19-2.23,2.1-3.72,2.72-1.49.62-3.12.94-4.91.94-2.29,0-4.33-.49-6.1-1.47-1.77-.98-3.15-2.33-4.15-4.06-.99-1.73-1.49-3.68-1.49-5.87s.47-4.14,1.42-5.87c.95-1.73,2.25-3.07,3.91-4.04,1.66-.96,3.52-1.45,5.59-1.45s3.92.48,5.57,1.45c1.64.96,2.93,2.3,3.87,4.02s1.4,3.68,1.4,5.89l-.04.94Zm-16.22-7.63c-1.46,1.38-2.29,3.17-2.49,5.38h15.86c-.2-2.21-1.03-4-2.49-5.38-1.46-1.38-3.28-2.06-5.46-2.06s-3.96.69-5.42,2.06Z" style="fill: #25335f; stroke-width: 0px;"/>
      <path d="m726.37,339.47c1.66,1.63,2.49,4,2.49,7.12v12.97h-3.02v-12.67c0-2.32-.58-4.09-1.74-5.31s-2.82-1.83-4.97-1.83c-2.41,0-4.32.72-5.72,2.15-1.4,1.43-2.1,3.41-2.1,5.93v11.73h-3.02v-22.36h2.89v4.12c.82-1.36,1.96-2.42,3.42-3.17,1.46-.75,3.15-1.13,5.08-1.13,2.81,0,5.04.81,6.7,2.44Z" style="fill: #25335f; stroke-width: 0px;"/>
      <path d="m748.84,358.2c-.57.51-1.27.9-2.1,1.17-.84.27-1.71.4-2.62.4-2.1,0-3.71-.57-4.85-1.7s-1.7-2.74-1.7-4.8v-13.52h-4v-2.55h4v-4.89h3.02v4.89h6.8v2.55h-6.8v13.35c0,1.33.33,2.35,1,3.04s1.62,1.04,2.87,1.04c.62,0,1.23-.1,1.81-.3.58-.2,1.08-.48,1.51-.85l1.06,2.17Z" style="fill: #25335f; stroke-width: 0px;"/>
      <path d="m757.64,358.3c-1.73-.98-3.09-2.33-4.08-4.06s-1.49-3.68-1.49-5.87.5-4.14,1.49-5.87c.99-1.73,2.35-3.07,4.08-4.04,1.73-.96,3.67-1.45,5.82-1.45s4.1.48,5.82,1.45c1.73.96,3.08,2.31,4.06,4.04.98,1.73,1.47,3.69,1.47,5.87s-.49,4.14-1.47,5.87-2.33,3.08-4.06,4.06-3.67,1.47-5.82,1.47-4.1-.49-5.82-1.47Zm10.1-2.3c1.26-.72,2.25-1.75,2.96-3.08.71-1.33,1.06-2.85,1.06-4.55s-.35-3.22-1.06-4.55c-.71-1.33-1.69-2.36-2.96-3.08-1.26-.72-2.69-1.08-4.27-1.08s-3.01.36-4.27,1.08-2.25,1.75-2.98,3.08-1.08,2.85-1.08,4.55.36,3.22,1.08,4.55c.72,1.33,1.71,2.36,2.98,3.08s2.69,1.08,4.27,1.08,3.01-.36,4.27-1.08Z" style="fill: #25335f; stroke-width: 0px;"/>
      <path d="m280.91,388.21l-11.18,25.04c-.91,2.1-1.96,3.58-3.15,4.46-1.19.88-2.62,1.32-4.29,1.32-1.08,0-2.08-.17-3.02-.51-.94-.34-1.74-.85-2.42-1.53l1.4-2.25c1.13,1.13,2.49,1.7,4.08,1.7,1.02,0,1.89-.28,2.61-.85.72-.57,1.4-1.53,2.02-2.89l.98-2.17-9.99-22.32h3.15l8.42,19,8.42-19h2.98Z" style="fill: #25335f; stroke-width: 0px;"/>
      <path d="m299.63,409.34c-1.74-.96-3.11-2.32-4.1-4.06-.99-1.74-1.49-3.71-1.49-5.89s.5-4.14,1.49-5.87c.99-1.73,2.36-3.08,4.1-4.04,1.74-.96,3.72-1.45,5.93-1.45,1.93,0,3.65.38,5.17,1.13,1.52.75,2.71,1.85,3.59,3.29l-2.25,1.53c-.74-1.11-1.67-1.93-2.81-2.49-1.13-.55-2.37-.83-3.7-.83-1.62,0-3.07.36-4.36,1.08-1.29.72-2.3,1.75-3.02,3.08s-1.08,2.85-1.08,4.55.36,3.25,1.08,4.57c.72,1.32,1.73,2.34,3.02,3.06,1.29.72,2.74,1.08,4.36,1.08,1.33,0,2.56-.27,3.7-.81,1.13-.54,2.07-1.36,2.81-2.47l2.25,1.53c-.88,1.45-2.08,2.54-3.61,3.29s-3.25,1.13-5.14,1.13c-2.21,0-4.19-.48-5.93-1.45Z" style="fill: #25335f; stroke-width: 0px;"/>
      <path d="m323.55,409.32c-1.73-.98-3.09-2.33-4.08-4.06-.99-1.73-1.49-3.68-1.49-5.87s.5-4.14,1.49-5.87c.99-1.73,2.35-3.08,4.08-4.04,1.73-.96,3.67-1.45,5.82-1.45s4.1.48,5.82,1.45c1.73.96,3.08,2.31,4.06,4.04.98,1.73,1.47,3.68,1.47,5.87s-.49,4.14-1.47,5.87c-.98,1.73-2.33,3.08-4.06,4.06-1.73.98-3.67,1.47-5.82,1.47s-4.1-.49-5.82-1.47Zm10.1-2.3c1.26-.72,2.25-1.75,2.95-3.08.71-1.33,1.06-2.85,1.06-4.55s-.35-3.22-1.06-4.55c-.71-1.33-1.69-2.36-2.95-3.08-1.26-.72-2.69-1.08-4.27-1.08s-3.01.36-4.27,1.08c-1.26.72-2.25,1.75-2.98,3.08s-1.08,2.85-1.08,4.55.36,3.22,1.08,4.55,1.71,2.36,2.98,3.08c1.26.72,2.68,1.08,4.27,1.08s3.01-.36,4.27-1.08Z" style="fill: #25335f; stroke-width: 0px;"/>
      <path d="m364.97,390.48c1.66,1.63,2.49,4,2.49,7.12v12.97h-3.02v-12.67c0-2.32-.58-4.1-1.74-5.31-1.16-1.22-2.82-1.83-4.97-1.83-2.41,0-4.31.72-5.72,2.15-1.4,1.43-2.1,3.41-2.1,5.93v11.73h-3.02v-22.36h2.89v4.12c.82-1.36,1.96-2.42,3.42-3.17,1.46-.75,3.15-1.13,5.08-1.13,2.81,0,5.04.82,6.7,2.44Z" style="fill: #25335f; stroke-width: 0px;"/>
      <path d="m387.44,409.21c-.57.51-1.27.9-2.1,1.17-.84.27-1.71.4-2.61.4-2.1,0-3.71-.57-4.85-1.7-1.13-1.13-1.7-2.73-1.7-4.8v-13.52h-4v-2.55h4v-4.89h3.02v4.89h6.8v2.55h-6.8v13.35c0,1.33.33,2.35,1,3.04.67.7,1.62,1.04,2.87,1.04.62,0,1.23-.1,1.81-.3.58-.2,1.08-.48,1.51-.85l1.06,2.17Z" style="fill: #25335f; stroke-width: 0px;"/>
      <path d="m398.98,389.19c1.4-.77,3.14-1.15,5.21-1.15v2.93l-.72-.04c-2.35,0-4.19.72-5.53,2.17-1.33,1.45-2,3.47-2,6.08v11.39h-3.02v-22.36h2.89v4.38c.71-1.5,1.76-2.64,3.17-3.4Z" style="fill: #25335f; stroke-width: 0px;"/>
      <path d="m413.29,409.32c-1.73-.98-3.09-2.33-4.08-4.06-.99-1.73-1.49-3.68-1.49-5.87s.5-4.14,1.49-5.87c.99-1.73,2.35-3.08,4.08-4.04,1.73-.96,3.67-1.45,5.82-1.45s4.09.48,5.82,1.45c1.73.96,3.08,2.31,4.06,4.04.98,1.73,1.47,3.68,1.47,5.87s-.49,4.14-1.47,5.87c-.98,1.73-2.33,3.08-4.06,4.06-1.73.98-3.67,1.47-5.82,1.47s-4.1-.49-5.82-1.47Zm10.1-2.3c1.26-.72,2.25-1.75,2.95-3.08.71-1.33,1.06-2.85,1.06-4.55s-.36-3.22-1.06-4.55c-.71-1.33-1.69-2.36-2.95-3.08-1.26-.72-2.69-1.08-4.27-1.08s-3.01.36-4.27,1.08c-1.26.72-2.25,1.75-2.98,3.08s-1.08,2.85-1.08,4.55.36,3.22,1.08,4.55,1.71,2.36,2.98,3.08c1.26.72,2.68,1.08,4.27,1.08s3.01-.36,4.27-1.08Z" style="fill: #25335f; stroke-width: 0px;"/>
      <path d="m436.63,379.03h3.02v31.54h-3.02v-31.54Z" style="fill: #25335f; stroke-width: 0px;"/>
      <path d="m459.84,380.81h3.15v29.76h-3.15v-29.76Z" style="fill: #25335f; stroke-width: 0px;"/>
      <path d="m490.13,390.48c1.66,1.63,2.49,4,2.49,7.12v12.97h-3.02v-12.67c0-2.32-.58-4.1-1.74-5.31-1.16-1.22-2.82-1.83-4.97-1.83-2.41,0-4.32.72-5.72,2.15-1.4,1.43-2.1,3.41-2.1,5.93v11.73h-3.02v-22.36h2.89v4.12c.82-1.36,1.96-2.42,3.42-3.17,1.46-.75,3.15-1.13,5.08-1.13,2.81,0,5.04.82,6.7,2.44Z" style="fill: #25335f; stroke-width: 0px;"/>
      <path d="m501.61,410c-1.66-.52-2.96-1.18-3.89-1.98l1.36-2.38c.93.74,2.11,1.34,3.53,1.81,1.42.47,2.89.7,4.42.7,2.04,0,3.55-.32,4.53-.96.98-.64,1.47-1.54,1.47-2.7,0-.82-.27-1.47-.81-1.93s-1.22-.82-2.04-1.06c-.82-.24-1.91-.47-3.27-.7-1.81-.34-3.27-.69-4.38-1.04s-2.05-.96-2.83-1.81c-.78-.85-1.17-2.03-1.17-3.53,0-1.87.78-3.4,2.34-4.59s3.73-1.79,6.5-1.79c1.45,0,2.89.19,4.34.57s2.64.89,3.57,1.51l-1.32,2.42c-1.84-1.28-4.04-1.91-6.59-1.91-1.93,0-3.38.34-4.36,1.02-.98.68-1.47,1.57-1.47,2.68,0,.85.28,1.53.83,2.04.55.51,1.24.89,2.06,1.13.82.24,1.96.49,3.4.74,1.79.34,3.22.68,4.29,1.02s2,.92,2.76,1.74,1.15,1.96,1.15,3.4c0,1.96-.81,3.51-2.44,4.66-1.63,1.15-3.89,1.72-6.78,1.72-1.81,0-3.55-.26-5.21-.79Z" style="fill: #25335f; stroke-width: 0px;"/>
      <path d="m533.39,409.21c-.57.51-1.27.9-2.1,1.17-.84.27-1.71.4-2.61.4-2.1,0-3.71-.57-4.85-1.7-1.13-1.13-1.7-2.73-1.7-4.8v-13.52h-4v-2.55h4v-4.89h3.02v4.89h6.8v2.55h-6.8v13.35c0,1.33.33,2.35,1,3.04.67.7,1.62,1.04,2.87,1.04.62,0,1.23-.1,1.81-.3.58-.2,1.08-.48,1.51-.85l1.06,2.17Z" style="fill: #25335f; stroke-width: 0px;"/>
      <path d="m538.83,382.68c-.42-.42-.64-.94-.64-1.53s.21-1.06.64-1.49c.43-.42.95-.64,1.57-.64s1.15.21,1.57.62c.42.41.64.9.64,1.47,0,.62-.21,1.15-.64,1.57s-.95.64-1.57.64-1.15-.21-1.57-.64Zm.04,5.53h3.02v22.36h-3.02v-22.36Z" style="fill: #25335f; stroke-width: 0px;"/>
      <path d="m562.08,409.21c-.57.51-1.27.9-2.1,1.17-.84.27-1.71.4-2.61.4-2.1,0-3.71-.57-4.85-1.7-1.13-1.13-1.7-2.73-1.7-4.8v-13.52h-4v-2.55h4v-4.89h3.02v4.89h6.8v2.55h-6.8v13.35c0,1.33.33,2.35,1,3.04.67.7,1.62,1.04,2.87,1.04.62,0,1.23-.1,1.81-.3.58-.2,1.08-.48,1.51-.85l1.06,2.17Z" style="fill: #25335f; stroke-width: 0px;"/>
      <path d="m587.72,388.21v22.36h-2.89v-4.08c-.79,1.36-1.88,2.42-3.27,3.17s-2.98,1.13-4.76,1.13c-2.92,0-5.22-.81-6.91-2.44-1.69-1.63-2.53-4.02-2.53-7.16v-12.97h3.02v12.67c0,2.35.58,4.14,1.74,5.36,1.16,1.22,2.82,1.83,4.97,1.83,2.35,0,4.21-.71,5.57-2.15,1.36-1.43,2.04-3.42,2.04-5.97v-11.73h3.02Z" style="fill: #25335f; stroke-width: 0px;"/>
      <path d="m599.51,409.34c-1.74-.96-3.11-2.32-4.1-4.06-.99-1.74-1.49-3.71-1.49-5.89s.5-4.14,1.49-5.87c.99-1.73,2.36-3.08,4.1-4.04,1.74-.96,3.72-1.45,5.93-1.45,1.93,0,3.65.38,5.17,1.13,1.52.75,2.71,1.85,3.59,3.29l-2.25,1.53c-.74-1.11-1.67-1.93-2.81-2.49s-2.37-.83-3.7-.83c-1.62,0-3.07.36-4.36,1.08-1.29.72-2.3,1.75-3.02,3.08s-1.08,2.85-1.08,4.55.36,3.25,1.08,4.57c.72,1.32,1.73,2.34,3.02,3.06,1.29.72,2.74,1.08,4.36,1.08,1.33,0,2.56-.27,3.7-.81s2.07-1.36,2.81-2.47l2.25,1.53c-.88,1.45-2.08,2.54-3.61,3.29s-3.25,1.13-5.14,1.13c-2.21,0-4.19-.48-5.93-1.45Z" style="fill: #25335f; stroke-width: 0px;"/>
      <path d="m620.07,382.68c-.42-.42-.64-.94-.64-1.53s.21-1.06.64-1.49c.43-.42.95-.64,1.57-.64s1.15.21,1.57.62c.42.41.64.9.64,1.47,0,.62-.21,1.15-.64,1.57s-.95.64-1.57.64-1.15-.21-1.57-.64Zm.04,5.53h3.02v22.36h-3.02v-22.36Z" style="fill: #25335f; stroke-width: 0px;"/>
      <path d="m634.86,409.32c-1.73-.98-3.09-2.33-4.08-4.06-.99-1.73-1.49-3.68-1.49-5.87s.5-4.14,1.49-5.87c.99-1.73,2.35-3.08,4.08-4.04,1.73-.96,3.67-1.45,5.82-1.45s4.1.48,5.82,1.45c1.73.96,3.08,2.31,4.06,4.04.98,1.73,1.47,3.68,1.47,5.87s-.49,4.14-1.47,5.87c-.98,1.73-2.33,3.08-4.06,4.06-1.73.98-3.67,1.47-5.82,1.47s-4.1-.49-5.82-1.47Zm10.1-2.3c1.26-.72,2.25-1.75,2.96-3.08.71-1.33,1.06-2.85,1.06-4.55s-.35-3.22-1.06-4.55c-.71-1.33-1.69-2.36-2.96-3.08s-2.69-1.08-4.27-1.08-3.01.36-4.27,1.08c-1.26.72-2.25,1.75-2.98,3.08s-1.08,2.85-1.08,4.55.36,3.22,1.08,4.55,1.71,2.36,2.98,3.08c1.26.72,2.68,1.08,4.27,1.08s3.01-.36,4.27-1.08Z" style="fill: #25335f; stroke-width: 0px;"/>
      <path d="m676.29,390.48c1.66,1.63,2.49,4,2.49,7.12v12.97h-3.02v-12.67c0-2.32-.58-4.1-1.74-5.31-1.16-1.22-2.82-1.83-4.97-1.83-2.41,0-4.32.72-5.72,2.15-1.4,1.43-2.1,3.41-2.1,5.93v11.73h-3.02v-22.36h2.89v4.12c.82-1.36,1.96-2.42,3.42-3.17,1.46-.75,3.15-1.13,5.08-1.13,2.81,0,5.04.82,6.7,2.44Z" style="fill: #25335f; stroke-width: 0px;"/>
      <path d="m701.52,390.23c1.56,1.46,2.34,3.62,2.34,6.48v13.86h-2.89v-3.49c-.68,1.16-1.68,2.07-3,2.72-1.32.65-2.88.98-4.7.98-2.49,0-4.48-.59-5.95-1.79s-2.21-2.76-2.21-4.72.69-3.43,2.06-4.59c1.37-1.16,3.56-1.74,6.57-1.74h7.1v-1.36c0-1.93-.54-3.39-1.62-4.4s-2.65-1.51-4.72-1.51c-1.42,0-2.78.23-4.08.7-1.3.47-2.42,1.11-3.36,1.93l-1.36-2.25c1.13-.96,2.49-1.71,4.08-2.23,1.59-.52,3.26-.79,5.02-.79,2.92,0,5.16.73,6.72,2.19Zm-3.4,17c1.22-.78,2.13-1.91,2.72-3.38v-3.66h-7.01c-3.83,0-5.74,1.33-5.74,4,0,1.3.5,2.33,1.49,3.08s2.38,1.13,4.17,1.13,3.16-.39,4.38-1.17Z" style="fill: #25335f; stroke-width: 0px;"/>
      <path d="m712.06,379.03h3.02v31.54h-3.02v-31.54Z" style="fill: #25335f; stroke-width: 0px;"/>
    </g>
    <line x1="225.74" y1="199.52" x2="225.74" y2="429.8" style="fill: none; stroke: #25335f; stroke-linecap: round; stroke-miterlimit: 10; stroke-width: 4.59px;"/>
  </g>
</svg>